<?xml version="1.0" encoding="UTF-8" standalone="no"?>
<!-- Generator: Adobe Illustrator 13.0.0, SVG Export Plug-In  -->

<svg
   xmlns:dc="http://purl.org/dc/elements/1.1/"
   xmlns:cc="http://creativecommons.org/ns#"
   xmlns:rdf="http://www.w3.org/1999/02/22-rdf-syntax-ns#"
   xmlns:svg="http://www.w3.org/2000/svg"
   xmlns="http://www.w3.org/2000/svg"
   xmlns:sodipodi="http://sodipodi.sourceforge.net/DTD/sodipodi-0.dtd"
   xmlns:inkscape="http://www.inkscape.org/namespaces/inkscape"
   version="1.1"
   x="0px"
   y="0px"
   width="165.54355"
   height="241.80327"
   viewBox="-17.645 -22.745 165.54355 241.80327"
   enable-background="new -17.645 -22.745 484 673"
   xml:space="preserve"
   id="svg3641"
   inkscape:version="0.91 r13725"
   sodipodi:docname="crossprod4.svg"><metadata
     id="metadata3719"><rdf:RDF><cc:Work
         rdf:about=""><dc:format>image/svg+xml</dc:format><dc:type
           rdf:resource="http://purl.org/dc/dcmitype/StillImage" /><dc:title></dc:title></cc:Work></rdf:RDF></metadata><sodipodi:namedview
     pagecolor="#ffffff"
     bordercolor="#666666"
     borderopacity="1"
     objecttolerance="10"
     gridtolerance="10"
     guidetolerance="10"
     inkscape:pageopacity="0"
     inkscape:pageshadow="2"
     inkscape:window-width="795"
     inkscape:window-height="662"
     id="namedview3717"
     showgrid="false"
     inkscape:zoom="0.81575037"
     inkscape:cx="102.64766"
     inkscape:cy="186.09294"
     inkscape:window-x="0"
     inkscape:window-y="0"
     inkscape:window-maximized="0"
     inkscape:current-layer="svg3641"
     fit-margin-top="0"
     fit-margin-left="0"
     fit-margin-right="0"
     fit-margin-bottom="0" /><defs
     id="defs3643" /><g
     id="g3788"
     transform="matrix(0.384,0,0,0.384,-19.041992,-22.745001)"><g
       id="g3681"><path
         id="path3683"
         d="m 58.203,424.801 c 0,-1.545 -0.024,-2.668 -0.073,-3.369 -0.049,-0.699 -0.151,-1.24 -0.305,-1.623 -0.155,-0.383 -0.391,-0.684 -0.708,-0.903 -0.317,-0.219 -0.875,-0.411 -1.672,-0.573 l 0,-1.611 6.812,-0.342 3.003,0 0,13.988 0.024,0.025 c 1.448,-1.352 2.763,-2.299 3.943,-2.845 1.18,-0.545 2.388,-0.817 3.625,-0.817 2.897,0 5.07,1.021 6.519,3.063 1.448,2.043 2.173,5.099 2.173,9.167 0,4.248 -0.957,7.439 -2.869,9.57 -1.913,2.133 -4.741,3.199 -8.484,3.199 -2.572,0 -4.924,-0.465 -7.056,-1.393 l -1.807,1.393 -3.125,-0.439 0,-26.49 z m 7.056,18.532 c 0,2.002 0.346,3.479 1.038,4.431 0.691,0.952 1.762,1.429 3.21,1.429 1.497,0 2.641,-0.785 3.43,-2.356 0.789,-1.57 1.184,-3.813 1.184,-6.726 0,-3.207 -0.35,-5.6 -1.05,-7.178 -0.7,-1.579 -1.791,-2.369 -3.271,-2.369 -0.716,0 -1.424,0.188 -2.124,0.563 -0.7,0.374 -1.278,0.907 -1.733,1.599 -0.456,0.692 -0.684,1.452 -0.684,2.282 l 0,8.325 z"
         inkscape:connector-curvature="0"
         style="fill:#e12828" /><path
         id="path3685"
         d="m 104.614,437.083 10.962,11.084 -2.441,2.441 -10.938,-11.158 -11.279,11.06 -2.271,-2.295 11.157,-11.133 -11.108,-10.962 2.441,-2.441 11.06,11.035 11.06,-11.035 2.295,2.271 -10.938,11.133 z"
         inkscape:connector-curvature="0" /><path
         id="path3687"
         d="m 136.865,448.141 -0.366,-0.121 c -1.335,1.302 -2.633,2.246 -3.894,2.832 -1.262,0.586 -2.6,0.879 -4.016,0.879 -2.083,0 -3.735,-0.55 -4.956,-1.648 -1.221,-1.098 -1.831,-2.567 -1.831,-4.406 0,-2.393 1.176,-4.277 3.528,-5.652 2.352,-1.375 5.92,-2.242 10.706,-2.6 l 0,-2.32 c 0,-1.514 -0.171,-2.681 -0.513,-3.503 -0.342,-0.821 -0.781,-1.399 -1.318,-1.733 -0.537,-0.334 -1.18,-0.5 -1.929,-0.5 -0.749,0 -1.396,0.13 -1.941,0.391 -0.545,0.26 -1.038,0.752 -1.477,1.477 -0.439,0.725 -0.765,1.729 -0.977,3.016 l -4.614,0 0,-4.443 c 1.872,-0.83 3.455,-1.453 4.749,-1.868 1.294,-0.415 2.498,-0.72 3.613,-0.915 1.115,-0.195 2.185,-0.293 3.21,-0.293 1.969,0 3.544,0.26 4.724,0.781 1.18,0.521 2.063,1.367 2.649,2.539 0.586,1.172 0.879,2.791 0.879,4.857 l 0,9.521 c 0,1.385 0.041,2.365 0.122,2.942 0.081,0.578 0.208,0.997 0.378,1.257 0.171,0.262 0.391,0.465 0.659,0.611 0.268,0.146 0.761,0.309 1.477,0.488 l 0,1.611 -9.082,0 0.22,-3.2 z m -0.805,-8.324 c -2.523,0.064 -4.391,0.537 -5.603,1.416 -1.213,0.879 -1.819,2.164 -1.819,3.857 0,1.009 0.276,1.777 0.83,2.307 0.553,0.529 1.318,0.793 2.295,0.793 0.749,0 1.457,-0.199 2.124,-0.598 0.667,-0.398 1.196,-0.932 1.587,-1.6 0.391,-0.666 0.586,-1.375 0.586,-2.123 l 0,-4.052 z"
         inkscape:connector-curvature="0"
         style="fill:#2828ff" /><path
         id="path3689"
         d="m 3.638,484.616 0,-3.248 30.078,0 0,3.248 -30.078,0 z m 0,10.131 0,-3.247 30.078,0 0,3.246 -30.078,0 z"
         inkscape:connector-curvature="0" /><path
         id="path3691"
         d="m 51.318,491.377 -11.328,0 0,-3.783 11.328,0 0,3.783 z"
         inkscape:connector-curvature="0" /><path
         id="path3693"
         d="m 70.85,499.141 -0.366,-0.121 c -1.335,1.302 -2.633,2.246 -3.894,2.832 -1.262,0.586 -2.6,0.879 -4.016,0.879 -2.083,0 -3.735,-0.55 -4.956,-1.648 -1.221,-1.098 -1.831,-2.567 -1.831,-4.406 0,-2.393 1.176,-4.277 3.528,-5.652 2.352,-1.375 5.92,-2.242 10.706,-2.6 l 0,-2.32 c 0,-1.514 -0.171,-2.681 -0.513,-3.503 -0.342,-0.821 -0.781,-1.399 -1.318,-1.733 -0.537,-0.334 -1.18,-0.5 -1.929,-0.5 -0.749,0 -1.396,0.13 -1.941,0.391 -0.545,0.26 -1.038,0.752 -1.477,1.477 -0.439,0.725 -0.765,1.729 -0.977,3.016 l -4.614,0 0,-4.443 c 1.872,-0.83 3.455,-1.453 4.749,-1.868 1.294,-0.415 2.498,-0.72 3.613,-0.915 1.115,-0.195 2.185,-0.293 3.21,-0.293 1.969,0 3.544,0.26 4.724,0.781 1.18,0.521 2.063,1.367 2.649,2.539 0.586,1.172 0.879,2.791 0.879,4.857 l 0,9.521 c 0,1.385 0.041,2.365 0.122,2.942 0.081,0.578 0.208,0.997 0.378,1.257 0.171,0.262 0.391,0.465 0.659,0.611 0.268,0.146 0.761,0.309 1.477,0.488 l 0,1.611 -9.082,0 0.22,-3.2 z m -0.806,-8.324 c -2.523,0.064 -4.391,0.537 -5.603,1.416 -1.213,0.879 -1.819,2.164 -1.819,3.857 0,1.009 0.276,1.777 0.83,2.307 0.553,0.529 1.318,0.793 2.295,0.793 0.749,0 1.457,-0.199 2.124,-0.598 0.667,-0.398 1.196,-0.932 1.587,-1.6 0.391,-0.666 0.586,-1.375 0.586,-2.123 l 0,-4.052 z"
         inkscape:connector-curvature="0"
         style="fill:#2828ff" /><path
         id="path3695"
         d="m 101.807,488.083 10.962,11.084 -2.441,2.441 -10.938,-11.158 -11.28,11.06 -2.271,-2.295 11.157,-11.133 -11.107,-10.962 2.441,-2.441 11.06,11.035 11.06,-11.035 2.295,2.271 -10.938,11.133 z"
         inkscape:connector-curvature="0" /><path
         id="path3697"
         d="m 121.411,475.801 c 0,-1.545 -0.024,-2.668 -0.073,-3.369 -0.049,-0.699 -0.151,-1.24 -0.305,-1.623 -0.155,-0.383 -0.391,-0.684 -0.708,-0.903 -0.317,-0.219 -0.875,-0.411 -1.672,-0.573 l 0,-1.611 6.812,-0.342 3.003,0 0,13.988 0.024,0.025 c 1.448,-1.352 2.763,-2.299 3.943,-2.845 1.18,-0.545 2.388,-0.817 3.625,-0.817 2.897,0 5.07,1.021 6.519,3.063 1.448,2.043 2.173,5.099 2.173,9.167 0,4.248 -0.957,7.439 -2.869,9.57 -1.913,2.133 -4.741,3.199 -8.484,3.199 -2.572,0 -4.924,-0.465 -7.056,-1.393 l -1.807,1.393 -3.125,-0.439 0,-26.49 z m 7.056,18.532 c 0,2.002 0.346,3.479 1.038,4.431 0.691,0.952 1.762,1.429 3.21,1.429 1.497,0 2.641,-0.785 3.43,-2.356 0.789,-1.57 1.184,-3.813 1.184,-6.726 0,-3.207 -0.35,-5.6 -1.05,-7.178 -0.7,-1.579 -1.791,-2.369 -3.271,-2.369 -0.716,0 -1.424,0.188 -2.124,0.563 -0.7,0.374 -1.278,0.907 -1.733,1.599 -0.456,0.692 -0.684,1.452 -0.684,2.282 l 0,8.325 z"
         inkscape:connector-curvature="0"
         style="fill:#e12828" /></g><g
       id="g3759"><path
         d="m 245.258,307.409 c 17.445,8.534 28.099,19.926 28.099,32.438 0,12.512 -10.652,23.903 -28.095,32.436"
         id="path3645"
         inkscape:connector-curvature="0"
         style="fill:none;stroke:#000000;stroke-width:6" /><line
         x1="166.957"
         y1="339.84799"
         x2="166.957"
         y2="39.848"
         id="line3647"
         style="fill:none;stroke:#963c96;stroke-width:9" /><line
         x1="166.957"
         y1="589.84802"
         x2="166.957"
         y2="339.84799"
         id="line3649"
         style="fill:none;stroke:#963c96;stroke-width:9" /><line
         x1="166.957"
         y1="339.84799"
         x2="397.92499"
         y2="244.177"
         id="line3651"
         style="fill:none;stroke:#e12828;stroke-width:9" /><line
         x1="166.957"
         y1="339.84799"
         x2="397.927"
         y2="435.51801"
         id="line3653"
         style="fill:none;stroke:#2828ff;stroke-width:9" /><polygon
         points="166.957,0 146.853,56.991 166.957,39.848 187.061,56.991 "
         id="polygon3655"
         style="fill:#963c96" /><polygon
         points="434.739,228.928 374.394,232.164 397.925,244.177 389.779,269.311 "
         id="polygon3657"
         style="fill:#e12828" /><polygon
         points="434.741,450.767 389.782,410.385 397.927,435.518 374.396,447.531 "
         id="polygon3659"
         style="fill:#2828ff" /><g
         id="g3661"><path
           d="m 70.85,164.157 -0.366,-0.122 c -1.335,1.302 -2.633,2.246 -3.894,2.832 -1.262,0.586 -2.6,0.879 -4.016,0.879 -2.083,0 -3.735,-0.549 -4.956,-1.648 -1.221,-1.099 -1.831,-2.567 -1.831,-4.407 0,-2.393 1.176,-4.276 3.528,-5.652 2.352,-1.375 5.92,-2.242 10.706,-2.6 l 0,-2.319 c 0,-1.514 -0.171,-2.681 -0.513,-3.503 -0.342,-0.822 -0.781,-1.399 -1.318,-1.733 -0.537,-0.333 -1.18,-0.5 -1.929,-0.5 -0.749,0 -1.396,0.13 -1.941,0.391 -0.545,0.261 -1.038,0.753 -1.477,1.477 -0.439,0.725 -0.765,1.729 -0.977,3.015 l -4.614,0 0,-4.443 c 1.872,-0.83 3.455,-1.453 4.749,-1.868 1.294,-0.415 2.498,-0.72 3.613,-0.916 1.115,-0.195 2.185,-0.293 3.21,-0.293 1.969,0 3.544,0.261 4.724,0.781 1.18,0.521 2.063,1.367 2.649,2.539 0.586,1.172 0.879,2.792 0.879,4.858 l 0,9.521 c 0,1.384 0.041,2.364 0.122,2.942 0.081,0.578 0.208,0.997 0.378,1.257 0.171,0.261 0.391,0.464 0.659,0.61 0.268,0.146 0.761,0.31 1.477,0.488 l 0,1.611 -9.082,0 0.22,-3.197 z m -0.806,-8.325 c -2.523,0.065 -4.391,0.537 -5.603,1.416 -1.213,0.879 -1.819,2.165 -1.819,3.857 0,1.009 0.276,1.778 0.83,2.307 0.553,0.529 1.318,0.793 2.295,0.793 0.749,0 1.457,-0.199 2.124,-0.598 0.667,-0.398 1.196,-0.932 1.587,-1.599 0.391,-0.667 0.586,-1.375 0.586,-2.124 l 0,-4.052 z"
           id="path3663"
           inkscape:connector-curvature="0"
           style="fill:#2828ff" /><path
           d="m 101.807,153.097 10.962,11.084 -2.441,2.441 -10.938,-11.157 -11.279,11.06 -2.271,-2.295 11.157,-11.133 -11.108,-10.962 2.441,-2.441 11.06,11.035 11.06,-11.035 2.295,2.271 -10.938,11.132 z"
           id="path3665"
           inkscape:connector-curvature="0" /><path
           d="m 121.411,140.817 c 0,-1.546 -0.024,-2.669 -0.073,-3.369 -0.049,-0.7 -0.151,-1.241 -0.305,-1.624 -0.155,-0.382 -0.391,-0.684 -0.708,-0.903 -0.317,-0.219 -0.875,-0.411 -1.672,-0.574 l 0,-1.611 6.812,-0.342 3.003,0 0,13.989 0.024,0.024 c 1.448,-1.351 2.763,-2.299 3.943,-2.844 1.18,-0.545 2.388,-0.818 3.625,-0.818 2.897,0 5.07,1.021 6.519,3.064 1.448,2.043 2.173,5.099 2.173,9.167 0,4.248 -0.957,7.438 -2.869,9.57 -1.913,2.132 -4.741,3.198 -8.484,3.198 -2.572,0 -4.924,-0.464 -7.056,-1.392 l -1.807,1.392 -3.125,-0.439 0,-26.488 z m 7.056,18.53 c 0,2.002 0.346,3.479 1.038,4.431 0.691,0.952 1.762,1.428 3.21,1.428 1.497,0 2.641,-0.785 3.43,-2.356 0.789,-1.57 1.184,-3.813 1.184,-6.726 0,-3.206 -0.35,-5.599 -1.05,-7.178 -0.7,-1.579 -1.791,-2.368 -3.271,-2.368 -0.716,0 -1.424,0.188 -2.124,0.562 -0.7,0.375 -1.278,0.908 -1.733,1.599 -0.456,0.692 -0.684,1.453 -0.684,2.283 l 0,8.325 z"
           id="path3667"
           inkscape:connector-curvature="0"
           style="fill:#e12828" /></g><g
         id="g3669"><path
           d="m 288.357,428.148 -0.366,-0.122 c -1.335,1.303 -2.633,2.246 -3.894,2.832 -1.262,0.586 -2.6,0.879 -4.016,0.879 -2.083,0 -3.735,-0.549 -4.956,-1.648 -1.221,-1.098 -1.831,-2.566 -1.831,-4.406 0,-2.393 1.176,-4.276 3.528,-5.652 2.352,-1.375 5.92,-2.241 10.706,-2.6 l 0,-2.319 c 0,-1.514 -0.171,-2.681 -0.513,-3.503 -0.342,-0.822 -0.781,-1.4 -1.318,-1.734 -0.537,-0.333 -1.18,-0.5 -1.929,-0.5 -0.749,0 -1.396,0.131 -1.941,0.391 -0.545,0.261 -1.038,0.753 -1.477,1.477 -0.439,0.725 -0.765,1.73 -0.977,3.016 l -4.614,0 0,-4.443 c 1.872,-0.83 3.455,-1.453 4.749,-1.867 1.294,-0.416 2.498,-0.721 3.613,-0.916 1.115,-0.195 2.185,-0.293 3.21,-0.293 1.969,0 3.544,0.261 4.724,0.781 1.18,0.521 2.063,1.367 2.649,2.539 0.586,1.172 0.879,2.791 0.879,4.858 l 0,9.521 c 0,1.384 0.041,2.364 0.122,2.942 0.081,0.578 0.208,0.996 0.378,1.257 0.17,0.261 0.391,0.464 0.659,0.61 0.268,0.146 0.761,0.31 1.477,0.488 l 0,1.611 -9.082,0 0.22,-3.199 z m -0.805,-8.325 c -2.523,0.065 -4.391,0.537 -5.603,1.416 -1.213,0.879 -1.819,2.165 -1.819,3.857 0,1.01 0.276,1.778 0.83,2.307 0.553,0.529 1.318,0.794 2.295,0.794 0.749,0 1.457,-0.199 2.124,-0.599 0.667,-0.398 1.196,-0.932 1.587,-1.599 0.391,-0.667 0.586,-1.375 0.586,-2.124 l 0,-4.052 z"
           id="path3671"
           inkscape:connector-curvature="0"
           style="fill:#2828ff" /></g><g
         id="g3673"><path
           d="m 310.648,320.541 c 3.157,0 5.599,0.92 7.324,2.759 1.725,1.839 2.588,4.468 2.588,7.886 0,2.49 -0.419,5.278 -1.257,8.362 -0.838,3.084 -2.047,5.774 -3.625,8.069 -1.579,2.295 -3.447,4.045 -5.603,5.249 -2.157,1.205 -4.439,1.807 -6.848,1.807 -3.271,0 -5.77,-0.911 -7.495,-2.734 -1.726,-1.823 -2.588,-4.427 -2.588,-7.813 0,-2.441 0.407,-5.192 1.221,-8.252 0.813,-3.06 2.01,-5.77 3.589,-8.13 1.579,-2.36 3.455,-4.15 5.627,-5.371 2.172,-1.221 4.528,-1.832 7.067,-1.832 z m 4.297,17.382 -16.333,0 c -0.586,2.653 -0.879,5.005 -0.879,7.056 0,2.507 0.468,4.391 1.404,5.652 0.936,1.262 2.332,1.892 4.187,1.892 1.66,0 3.243,-0.586 4.749,-1.758 1.505,-1.172 2.848,-2.873 4.028,-5.103 1.18,-2.229 2.128,-4.809 2.844,-7.739 z m -15.771,-2.246 16.235,0 c 0.342,-1.888 0.513,-3.727 0.513,-5.518 0,-2.425 -0.46,-4.276 -1.379,-5.554 -0.92,-1.277 -2.307,-1.917 -4.163,-1.917 -2.376,0 -4.537,1.131 -6.482,3.394 -1.945,2.263 -3.52,5.461 -4.724,9.595 z"
           id="path3675"
           inkscape:connector-curvature="0" /></g><g
         id="g3677"><path
           d="m 272.903,248.311 c 0,-1.546 -0.024,-2.669 -0.073,-3.369 -0.049,-0.7 -0.151,-1.241 -0.305,-1.624 -0.155,-0.382 -0.391,-0.684 -0.708,-0.903 -0.317,-0.219 -0.875,-0.411 -1.672,-0.574 l 0,-1.611 6.812,-0.342 3.003,0 0,13.989 0.024,0.024 c 1.448,-1.351 2.763,-2.299 3.943,-2.844 1.18,-0.545 2.388,-0.818 3.625,-0.818 2.897,0 5.07,1.021 6.519,3.064 1.448,2.043 2.173,5.099 2.173,9.167 0,4.248 -0.957,7.438 -2.869,9.57 -1.913,2.132 -4.741,3.198 -8.484,3.198 -2.572,0 -4.924,-0.464 -7.056,-1.392 l -1.807,1.392 -3.125,-0.439 0,-26.488 z m 7.056,18.53 c 0,2.002 0.346,3.479 1.038,4.431 0.691,0.952 1.762,1.428 3.21,1.428 1.497,0 2.641,-0.785 3.43,-2.356 0.789,-1.57 1.184,-3.813 1.184,-6.726 0,-3.206 -0.35,-5.599 -1.05,-7.178 -0.7,-1.579 -1.791,-2.368 -3.271,-2.368 -0.716,0 -1.424,0.188 -2.124,0.562 -0.7,0.375 -1.278,0.908 -1.733,1.599 -0.456,0.692 -0.684,1.453 -0.684,2.283 l 0,8.325 z"
           id="path3679"
           inkscape:connector-curvature="0"
           style="fill:#e12828" /></g><g
         enable-background="new    "
         id="g3699"><path
           d="m 145.557,306.348 -11.841,0 0,-1.611 c 0.749,-0.179 1.27,-0.443 1.563,-0.793 0.293,-0.35 0.492,-0.822 0.598,-1.416 0.105,-0.594 0.159,-1.664 0.159,-3.21 l 0,-6.519 c 0,-1.188 -0.033,-2.217 -0.098,-3.088 -0.065,-0.871 -0.179,-1.546 -0.342,-2.026 -0.163,-0.48 -0.366,-0.871 -0.61,-1.172 -0.244,-0.301 -0.529,-0.533 -0.854,-0.696 -0.326,-0.163 -0.781,-0.244 -1.367,-0.244 -0.619,0 -1.262,0.191 -1.929,0.574 -0.667,0.383 -1.229,0.912 -1.685,1.587 -0.456,0.676 -0.684,1.396 -0.684,2.161 l 0,9.399 c 0,1.546 0.049,2.621 0.146,3.223 0.098,0.603 0.297,1.079 0.598,1.428 0.301,0.35 0.834,0.615 1.599,0.793 l 0,1.611 -11.792,0 0,-1.611 c 0.781,-0.211 1.322,-0.488 1.624,-0.83 0.301,-0.342 0.504,-0.806 0.61,-1.392 0.105,-0.586 0.159,-1.652 0.159,-3.198 l 0,-10.034 c 0,-1.204 -0.021,-2.095 -0.061,-2.673 -0.041,-0.578 -0.139,-1.042 -0.293,-1.392 -0.155,-0.35 -0.391,-0.635 -0.708,-0.854 -0.317,-0.219 -0.867,-0.411 -1.648,-0.574 l 0,-1.66 6.689,-0.195 3.076,0 -0.366,3.516 0.293,0.073 c 1.563,-1.399 2.934,-2.38 4.114,-2.942 1.18,-0.562 2.38,-0.842 3.601,-0.842 1.334,0 2.441,0.191 3.32,0.574 0.879,0.383 1.591,0.94 2.136,1.672 0.545,0.732 0.936,1.628 1.172,2.686 0.236,1.058 0.354,2.287 0.354,3.687 l 0,8.936 c 0,1.546 0.049,2.612 0.146,3.198 0.097,0.586 0.301,1.054 0.61,1.404 0.309,0.35 0.879,0.631 1.709,0.842 l 0,1.608 z"
           id="path3701"
           inkscape:connector-curvature="0"
           style="fill:#808080" /><path
           d="m 133.948,271.143 8.301,7.69 -1.318,1.392 -8.618,-5.933 -0.269,0 -8.765,5.933 -1.318,-1.392 8.716,-7.69 3.271,0 z"
           id="path3703"
           inkscape:connector-curvature="0"
           style="fill:#808080" /></g><line
         x1="166.957"
         y1="339.84799"
         x2="166.957"
         y2="236.85201"
         id="line3705"
         style="fill:none;stroke:#808080;stroke-width:11" /><polygon
         points="166.957,197.004 146.853,253.996 166.957,236.852 187.061,253.996 "
         id="polygon3707"
         style="fill:#808080" /><polygon
         points="166.957,629.696 187.061,572.705 166.957,589.848 146.853,572.705 "
         id="polygon3709"
         style="fill:#963c96" /><polyline
         points="166.957,299.922 212.791,281.389 212.791,320.862 "
         id="polyline3711"
         style="fill:none;stroke:#000000;stroke-width:6" /><polyline
         points="166.957,299.922 205.927,316.516 205.927,355.99 "
         id="polyline3713"
         style="fill:none;stroke:#000000;stroke-width:6" /><circle
         cx="166.957"
         cy="339.84799"
         r="13.702"
         id="circle3715" /></g></g></svg>