<?xml version="1.0" encoding="UTF-8" standalone="no"?>
<!-- Generator: Adobe Illustrator 13.0.0, SVG Export Plug-In  -->

<svg
   xmlns:dc="http://purl.org/dc/elements/1.1/"
   xmlns:cc="http://creativecommons.org/ns#"
   xmlns:rdf="http://www.w3.org/1999/02/22-rdf-syntax-ns#"
   xmlns:svg="http://www.w3.org/2000/svg"
   xmlns="http://www.w3.org/2000/svg"
   xmlns:sodipodi="http://sodipodi.sourceforge.net/DTD/sodipodi-0.dtd"
   xmlns:inkscape="http://www.inkscape.org/namespaces/inkscape"
   version="1.1"
   x="0px"
   y="0px"
   width="280.31079"
   height="248.84833"
   viewBox="-21.914 -25.609 280.31079 248.84833"
   enable-background="new -21.914 -25.609 507 459"
   xml:space="preserve"
   id="svg4176"
   inkscape:version="0.91 r13725"
   sodipodi:docname="rhrule2.svg"><metadata
     id="metadata4250"><rdf:RDF><cc:Work
         rdf:about=""><dc:format>image/svg+xml</dc:format><dc:type
           rdf:resource="http://purl.org/dc/dcmitype/StillImage" /><dc:title></dc:title></cc:Work></rdf:RDF></metadata><sodipodi:namedview
     pagecolor="#ffffff"
     bordercolor="#666666"
     borderopacity="1"
     objecttolerance="10"
     gridtolerance="10"
     guidetolerance="10"
     inkscape:pageopacity="0"
     inkscape:pageshadow="2"
     inkscape:window-width="718"
     inkscape:window-height="480"
     id="namedview4248"
     showgrid="false"
     fit-margin-top="0"
     fit-margin-left="0"
     fit-margin-right="0"
     fit-margin-bottom="0"
     inkscape:zoom="0.51416122"
     inkscape:cx="472.67449"
     inkscape:cy="15.280773"
     inkscape:window-x="0"
     inkscape:window-y="0"
     inkscape:window-maximized="0"
     inkscape:current-layer="svg4176" /><defs
     id="defs4178" /><g
     id="g4252"
     transform="matrix(0.6,0,0,0.6,-21.914,-25.608999)"><path
       id="path4180"
       d="m 466.982,303.788 c -22,-3 -57,-23 -62,-26 -5,-3 -28,-28 -40,-47 -12,-19 -23,-42 -27,-55 -4,-13 -8,-26 -9,-33 -1,-7 1,-23.5 4,-30.5 -7,-5 -21,-6 -27,7 -6,13 -11,33 -11,46 0,13 22,55 8,61 -14,6 -17,14 -89,-4 -72,-18 -102,-20 -109,-6 -7,14 34,20 56,24 22,4 72.021,22.634 65,32 -4.35,5.802 -9.375,4.488 -20.709,8.488 -19.611,6.922 -19.308,9.966 -43.791,18.345 -24.433,8.362 -22.843,32.226 -15.167,36.23 7.676,4.004 14.016,6.342 46.386,-12.013 14.35,-5.34 31.782,-8.885 47.115,-10.218 15.333,-1.333 24.668,56 41.334,64.667 16.666,8.667 35.999,8 47.999,8 12,0 18.666,2.001 25.333,-1.333 6.667,-3.334 25.334,1.332 35.334,6.666 0,0 38.667,18.667 42,22.667"
       inkscape:connector-curvature="0"
       style="fill:#e5d4b1;stroke:#000000;stroke-width:3" /><path
       id="path4182"
       d="m 234.483,270.787 c 33.999,-1.999 45.999,30.667 53.999,48.001"
       inkscape:connector-curvature="0"
       style="fill:none;stroke:#897f6a;stroke-width:2" /><path
       id="path4184"
       d="m 306.149,245.453 c 0.334,25.334 11.001,46.668 25.333,54.666"
       inkscape:connector-curvature="0"
       style="fill:none;stroke:#897f6a;stroke-width:2" /><path
       id="path4186"
       d="m 239.816,230.787 c -8,1.333 -17.333,20 -13.333,25.333"
       inkscape:connector-curvature="0"
       style="fill:none;stroke:#897f6a;stroke-width:2" /><path
       id="path4188"
       d="m 197.149,220.12 c -5.333,4 -16,13.333 -13.333,18.667"
       inkscape:connector-curvature="0"
       style="fill:none;stroke:#897f6a;stroke-width:2" /><path
       id="path4190"
       d="m 149.149,212.12 c -6.667,4 -8.834,15.501 -10.167,18.167"
       inkscape:connector-curvature="0"
       style="fill:none;stroke:#897f6a;stroke-width:2" /><path
       id="path4192"
       d="m 222.483,280.121 c 8,4 12,17.332 9.333,26.666"
       inkscape:connector-curvature="0"
       style="fill:none;stroke:#897f6a;stroke-width:2" /><path
       id="path4194"
       d="m 201.296,287.393 c 6.667,4 7.248,23.993 4.581,27.993"
       inkscape:connector-curvature="0"
       style="fill:none;stroke:#897f6a;stroke-width:2" /><path
       id="path4196"
       d="m 175.848,298.59 c 8.648,6.485 9.591,15.534 5.089,26.466"
       inkscape:connector-curvature="0"
       style="fill:none;stroke:#897f6a;stroke-width:2" /><path
       id="path4198"
       d="m 293.982,236.288 c -4,10 -7,18 -6,24"
       inkscape:connector-curvature="0"
       style="fill:none;stroke:#897f6a;stroke-width:2" /><path
       id="path4200"
       d="m 294.982,165.288 c 11.947,1.707 2.677,3.252 25,-1"
       inkscape:connector-curvature="0"
       style="fill:none;stroke:#897f6a;stroke-width:2" /><path
       id="path4202"
       d="m 399.149,286.788 c -4,12 -8,15.999 -14.667,19.999"
       inkscape:connector-curvature="0"
       style="fill:none;stroke:#897f6a;stroke-width:2" /><path
       id="path4204"
       d="m 299.816,374.455 c 15.905,-3.181 27.334,-5.333 36,-8 8.666,-2.667 21.332,-10.001 24.666,-16.667 3.334,-6.666 0.667,-7.999 -1.333,-12.666 -2,-4.667 -23.999,-2 -29.333,0 -5.334,2 -10,4 -32,7.333 -22,3.333 -28,5 -39.334,3.666 -9.292,-1.094 1.335,22.333 6.001,25 4.666,2.667 5.333,7.334 35.333,1.334 z"
       inkscape:connector-curvature="0"
       style="fill:#e5d4b1;stroke:#000000;stroke-width:3" /><path
       id="path4206"
       d="m 316.784,311.788 c 18.897,-1.333 28.348,-2.666 33.435,2.667 5.087,5.333 2.906,10.667 1.453,12 -1.453,1.333 -18.171,8.666 -26.893,11.333 -8.723,2.667 -10.176,0.667 -27.619,4.667 -17.444,4 -18.897,5.333 -23.986,7.333 -5.088,2 -15.263,1.333 -24.711,-6 -9.449,-7.333 -7.996,-20 -7.269,-24 0.727,-4 1.455,-12.667 19.625,-14 18.17,-1.333 12.354,4.666 35.614,5.333 23.258,0.667 20.351,0.667 20.351,0.667 z"
       inkscape:connector-curvature="0"
       style="fill:#e5d4b1;stroke:#000000;stroke-width:3" /><path
       id="path4208"
       d="m 245.815,318.455 c -1.923,17.305 1.109,18.166 10.667,25.333"
       inkscape:connector-curvature="0"
       style="fill:none;stroke:#897f6a;stroke-width:2" /><path
       id="path4210"
       d="m 275.149,318.787 c 0,5.333 1.333,17.333 1.333,17.333"
       inkscape:connector-curvature="0"
       style="fill:none;stroke:#897f6a;stroke-width:2" /><path
       id="path4212"
       d="m 308.149,317.12 c 0,2.667 1.334,13.333 1.334,17.333"
       inkscape:connector-curvature="0"
       style="fill:none;stroke:#897f6a;stroke-width:2" /><path
       id="path4214"
       d="m 314.815,347.122 c 0,4 6.667,17.333 6.667,17.333"
       inkscape:connector-curvature="0"
       style="fill:none;stroke:#897f6a;stroke-width:2" /><path
       id="path4216"
       d="m 282.482,354.788 c 1.333,2.667 2.667,14.666 6.667,16"
       inkscape:connector-curvature="0"
       style="fill:none;stroke:#897f6a;stroke-width:2" /><path
       id="path4218"
       d="m 405.815,318.788 c -6.666,12 -10.666,42.668 -17.333,49.334"
       inkscape:connector-curvature="0"
       style="fill:none;stroke:#897f6a;stroke-width:2" /><line
       id="line4220"
       y2="41.787998"
       x2="322.814"
       y1="90.788002"
       x1="323.48199"
       style="fill:none;stroke:#963c96;stroke-width:9;stroke-linecap:round" /><polygon
       id="polygon4222"
       points="322.814,41.788 299.501,60.3 322.814,0 346.127,60.3 "
       style="fill:#963c96" /><line
       id="line4224"
       y2="201.067"
       x2="40.900002"
       y1="210.46001"
       x1="88.996002"
       style="fill:none;stroke:#2828ff;stroke-width:9;stroke-linecap:round" /><polygon
       id="polygon4226"
       points="40.9,201.067 54.24,227.68 0,192.5 63.799,182.044 "
       style="fill:#2828ff" /><line
       id="line4228"
       y2="348.005"
       x2="95.584999"
       y1="335.255"
       x1="126.377"
       style="fill:none;stroke:#e12828;stroke-width:9;stroke-linecap:round" /><polygon
       id="polygon4230"
       points="95.585,348.005 118.064,371.413 69.063,358.197 96.605,315.568 "
       style="fill:#e12828" /><g
       id="g4232"><path
         id="path4234"
         d="m 375.868,62.098 -0.308,-0.103 c -1.121,1.094 -2.212,1.887 -3.271,2.379 -1.059,0.492 -2.184,0.738 -3.373,0.738 -1.75,0 -3.138,-0.461 -4.163,-1.384 -1.025,-0.923 -1.538,-2.157 -1.538,-3.702 0,-2.01 0.987,-3.592 2.963,-4.748 1.976,-1.156 4.974,-1.883 8.993,-2.184 l 0,-1.948 c 0,-1.271 -0.144,-2.252 -0.431,-2.943 -0.287,-0.691 -0.656,-1.176 -1.107,-1.456 -0.451,-0.28 -0.991,-0.42 -1.62,-0.42 -0.629,0 -1.173,0.109 -1.63,0.328 -0.459,0.219 -0.872,0.632 -1.241,1.241 -0.369,0.609 -0.643,1.453 -0.82,2.533 l -3.876,0 0,-3.732 c 1.572,-0.697 2.902,-1.22 3.988,-1.569 1.088,-0.349 2.099,-0.605 3.035,-0.769 0.936,-0.164 1.836,-0.246 2.697,-0.246 1.654,0 2.977,0.219 3.969,0.656 0.99,0.438 1.732,1.148 2.225,2.133 0.493,0.985 0.738,2.345 0.738,4.081 l 0,7.998 c 0,1.162 0.034,1.986 0.103,2.471 0.069,0.485 0.175,0.837 0.317,1.056 0.145,0.219 0.328,0.39 0.555,0.513 0.225,0.123 0.639,0.26 1.24,0.41 l 0,1.354 -7.629,0 0.184,-2.687 z m -0.677,-6.994 c -2.119,0.055 -3.688,0.451 -4.707,1.189 -1.019,0.738 -1.527,1.818 -1.527,3.24 0,0.848 0.232,1.494 0.697,1.938 0.465,0.444 1.107,0.667 1.928,0.667 0.629,0 1.224,-0.167 1.784,-0.502 0.56,-0.335 1.005,-0.783 1.333,-1.343 0.328,-0.56 0.492,-1.155 0.492,-1.784 l 0,-3.405 z"
         inkscape:connector-curvature="0"
         style="fill:#2828ff" /><path
         id="path4236"
         d="m 403.971,52.808 9.208,9.311 -2.051,2.051 -9.188,-9.372 -9.475,9.29 -1.907,-1.928 9.372,-9.352 -9.33,-9.208 2.051,-2.051 9.29,9.27 9.29,-9.27 1.928,1.907 -9.188,9.352 z"
         inkscape:connector-curvature="0" /><path
         id="path4238"
         d="m 422.54,42.492 c 0,-1.299 -0.021,-2.242 -0.062,-2.83 -0.041,-0.588 -0.127,-1.042 -0.256,-1.364 -0.131,-0.321 -0.328,-0.574 -0.596,-0.759 -0.266,-0.185 -0.734,-0.345 -1.404,-0.482 l 0,-1.354 5.722,-0.287 2.522,0 0,11.751 0.021,0.021 c 1.217,-1.135 2.32,-1.931 3.312,-2.389 0.992,-0.458 2.007,-0.687 3.046,-0.687 2.434,0 4.259,0.858 5.476,2.574 1.217,1.716 1.825,4.283 1.825,7.701 0,3.568 -0.804,6.248 -2.409,8.039 -1.607,1.791 -3.982,2.687 -7.127,2.687 -2.16,0 -4.136,-0.39 -5.927,-1.169 l -1.518,1.169 -2.625,-0.369 0,-22.252 z m 5.926,15.566 c 0,1.682 0.29,2.922 0.871,3.722 0.581,0.8 1.48,1.2 2.697,1.2 1.258,0 2.218,-0.66 2.881,-1.979 0.663,-1.319 0.995,-3.203 0.995,-5.65 0,-2.693 -0.294,-4.703 -0.882,-6.029 -0.588,-1.326 -1.504,-1.989 -2.748,-1.989 -0.602,0 -1.196,0.157 -1.784,0.472 -0.588,0.315 -1.073,0.762 -1.456,1.343 -0.383,0.581 -0.574,1.22 -0.574,1.917 l 0,6.993 z"
         inkscape:connector-curvature="0"
         style="fill:#e12828" /></g><g
       id="g4240"><path
         id="path4242"
         d="m 74.339,166.769 -0.308,-0.103 c -1.121,1.094 -2.212,1.887 -3.271,2.379 -1.059,0.492 -2.184,0.738 -3.373,0.738 -1.75,0 -3.138,-0.461 -4.163,-1.384 -1.025,-0.923 -1.538,-2.157 -1.538,-3.702 0,-2.01 0.987,-3.592 2.963,-4.748 1.976,-1.156 4.974,-1.883 8.993,-2.184 l 0,-1.948 c 0,-1.271 -0.144,-2.252 -0.431,-2.943 -0.287,-0.691 -0.656,-1.176 -1.107,-1.456 -0.451,-0.28 -0.991,-0.42 -1.62,-0.42 -0.629,0 -1.173,0.109 -1.63,0.328 -0.459,0.219 -0.872,0.632 -1.241,1.241 -0.369,0.609 -0.643,1.453 -0.82,2.533 l -3.876,0 0,-3.732 c 1.572,-0.697 2.902,-1.22 3.988,-1.569 1.088,-0.349 2.099,-0.605 3.035,-0.769 0.936,-0.164 1.836,-0.246 2.697,-0.246 1.654,0 2.977,0.219 3.969,0.656 0.99,0.438 1.732,1.148 2.225,2.133 0.493,0.985 0.738,2.345 0.738,4.081 l 0,7.998 c 0,1.162 0.034,1.986 0.103,2.471 0.069,0.485 0.175,0.837 0.317,1.056 0.145,0.219 0.328,0.39 0.555,0.513 0.225,0.123 0.639,0.26 1.24,0.41 l 0,1.354 -7.629,0 0.184,-2.687 z m -0.676,-6.994 c -2.119,0.055 -3.688,0.451 -4.707,1.189 -1.019,0.738 -1.527,1.818 -1.527,3.24 0,0.848 0.232,1.494 0.697,1.938 0.465,0.444 1.107,0.667 1.928,0.667 0.629,0 1.224,-0.167 1.784,-0.502 0.56,-0.335 1.005,-0.783 1.333,-1.343 0.328,-0.56 0.492,-1.155 0.492,-1.784 l 0,-3.405 z"
         inkscape:connector-curvature="0"
         style="fill:#2828ff" /></g><g
       id="g4244"><path
         id="path4246"
         d="m 93.716,283.163 c 0,-1.299 -0.021,-2.242 -0.062,-2.83 -0.041,-0.588 -0.127,-1.042 -0.256,-1.363 -0.131,-0.321 -0.328,-0.574 -0.596,-0.759 -0.266,-0.185 -0.734,-0.345 -1.404,-0.481 l 0,-1.354 5.722,-0.287 2.522,0 0,11.75 0.021,0.021 c 1.217,-1.135 2.32,-1.932 3.312,-2.39 0.992,-0.458 2.007,-0.687 3.046,-0.687 2.434,0 4.259,0.857 5.476,2.573 1.217,1.716 1.825,4.282 1.825,7.7 0,3.568 -0.804,6.248 -2.409,8.039 -1.607,1.791 -3.982,2.688 -7.127,2.688 -2.16,0 -4.136,-0.391 -5.927,-1.17 l -1.518,1.17 -2.625,-0.369 0,-22.251 z m 5.927,15.566 c 0,1.682 0.29,2.922 0.871,3.722 0.581,0.8 1.48,1.2 2.697,1.2 1.258,0 2.218,-0.66 2.881,-1.979 0.663,-1.319 0.995,-3.202 0.995,-5.649 0,-2.693 -0.294,-4.703 -0.882,-6.029 -0.588,-1.326 -1.504,-1.99 -2.748,-1.99 -0.602,0 -1.196,0.158 -1.784,0.473 -0.588,0.315 -1.073,0.762 -1.456,1.343 -0.383,0.581 -0.574,1.22 -0.574,1.917 l 0,6.992 z"
         inkscape:connector-curvature="0"
         style="fill:#e12828" /></g></g></svg>